<svg id="svg" xmlns="http://www.w3.org/2000/svg" xmlns:xlink="http://www.w3.org/1999/xlink" width="400" height="400" viewBox="0, 0, 400,400"><g id="svgg"><path id="path0" d="M67.385 8.900 C 67.280 9.175,67.241 43.870,67.297 86.000 L 67.400 162.600 69.442 163.600 C 70.565 164.150,71.735 164.800,72.042 165.044 C 72.349 165.288,74.040 166.264,75.800 167.212 C 77.560 168.160,79.720 169.357,80.600 169.872 C 81.480 170.387,83.370 171.445,84.800 172.223 C 88.061 173.998,91.149 175.699,96.000 178.392 C 98.090 179.553,100.700 181.001,101.800 181.611 C 102.900 182.221,105.060 183.440,106.600 184.320 C 108.140 185.201,110.480 186.490,111.800 187.185 C 113.120 187.881,115.280 189.062,116.600 189.811 C 117.920 190.561,120.416 191.944,122.147 192.887 C 123.878 193.829,126.422 195.230,127.802 196.000 C 129.182 196.770,131.276 197.919,132.455 198.552 C 133.635 199.186,134.690 199.816,134.800 199.953 C 134.910 200.089,135.810 200.609,136.800 201.108 C 137.790 201.607,139.410 202.486,140.400 203.060 C 141.390 203.634,143.550 204.828,145.200 205.712 C 146.850 206.597,148.920 207.733,149.800 208.237 C 150.680 208.740,152.570 209.796,154.000 210.582 C 155.430 211.368,157.680 212.622,159.000 213.369 C 160.320 214.115,162.030 215.047,162.800 215.439 C 163.570 215.832,164.843 216.551,165.630 217.037 C 167.088 217.939,172.911 221.095,175.800 222.550 C 176.680 222.993,177.490 223.479,177.600 223.630 C 177.782 223.880,179.860 225.019,185.725 228.085 C 186.866 228.681,187.996 229.336,188.235 229.539 C 189.296 230.443,195.219 233.236,195.589 233.007 C 195.815 232.867,196.000 232.234,196.000 231.600 C 196.000 230.966,196.180 230.336,196.400 230.200 C 196.937 229.868,196.953 87.270,196.416 85.246 C 196.205 84.451,195.926 83.122,195.797 82.293 C 195.539 80.642,195.015 80.216,189.800 77.421 C 188.260 76.595,186.730 75.689,186.400 75.407 C 186.070 75.125,185.427 74.781,184.972 74.643 C 184.516 74.505,183.256 73.816,182.172 73.112 C 181.087 72.408,179.570 71.514,178.800 71.125 C 178.030 70.736,177.130 70.252,176.800 70.051 C 175.033 68.973,171.129 66.778,169.200 65.778 C 167.990 65.151,166.730 64.432,166.400 64.179 C 166.070 63.926,164.990 63.287,164.000 62.759 C 163.010 62.232,162.110 61.690,162.000 61.555 C 161.890 61.420,160.450 60.588,158.800 59.707 C 157.150 58.825,154.720 57.464,153.400 56.683 C 152.080 55.902,150.016 54.790,148.813 54.213 C 147.609 53.636,146.529 53.010,146.413 52.821 C 146.296 52.632,145.030 51.861,143.600 51.107 C 142.170 50.353,139.470 48.865,137.600 47.799 C 135.730 46.734,133.570 45.521,132.800 45.103 C 132.030 44.686,130.680 43.911,129.800 43.382 C 128.920 42.852,127.801 42.241,127.313 42.024 C 126.826 41.808,124.075 40.273,121.200 38.615 C 118.325 36.957,115.814 35.600,115.620 35.600 C 115.426 35.600,115.207 35.452,115.133 35.271 C 115.060 35.090,113.830 34.308,112.400 33.533 C 110.970 32.758,108.450 31.349,106.800 30.402 C 105.150 29.454,102.778 28.121,101.529 27.440 C 98.582 25.831,91.050 21.543,89.000 20.308 C 85.428 18.155,80.145 15.275,79.300 15.019 C 78.805 14.869,78.399 14.623,78.399 14.473 C 78.398 14.323,77.363 13.660,76.099 13.000 C 74.834 12.340,73.710 11.689,73.600 11.552 C 73.490 11.416,72.468 10.835,71.328 10.260 C 70.189 9.685,69.143 9.032,69.005 8.808 C 68.653 8.239,67.614 8.298,67.385 8.900 " stroke="none" fill="#9c9c9c" fill-rule="evenodd"></path><path id="path1" d="M330.800 8.394 C 330.800 8.761,329.711 9.404,324.000 12.411 C 322.790 13.048,321.559 13.778,321.264 14.034 C 320.771 14.462,319.046 15.417,312.600 18.832 C 311.280 19.531,310.110 20.237,310.000 20.400 C 309.890 20.563,308.663 21.305,307.274 22.048 C 302.053 24.842,301.375 25.225,300.400 25.929 C 299.850 26.327,298.500 27.073,297.400 27.587 C 296.300 28.102,295.130 28.739,294.800 29.003 C 294.470 29.267,293.210 30.003,292.000 30.639 C 290.790 31.274,289.710 31.907,289.600 32.045 C 289.490 32.184,288.320 32.871,287.000 33.572 C 285.680 34.273,283.430 35.540,282.000 36.388 C 280.570 37.235,278.410 38.425,277.200 39.032 C 275.990 39.640,274.723 40.370,274.384 40.655 C 274.045 40.939,272.785 41.688,271.584 42.318 C 268.054 44.169,264.631 46.070,264.186 46.425 C 263.958 46.607,262.698 47.319,261.386 48.008 C 260.074 48.697,257.650 50.044,256.000 51.003 C 254.350 51.961,251.920 53.321,250.600 54.024 C 249.280 54.728,248.110 55.425,248.000 55.575 C 247.890 55.724,246.630 56.433,245.200 57.151 C 243.770 57.868,241.430 59.158,240.000 60.017 C 238.570 60.876,236.666 61.938,235.769 62.378 C 234.872 62.817,233.702 63.512,233.169 63.922 C 232.636 64.333,231.210 65.163,230.000 65.768 C 228.790 66.372,226.810 67.475,225.600 68.218 C 224.390 68.961,223.203 69.576,222.961 69.584 C 222.720 69.593,222.107 69.960,221.600 70.400 C 221.093 70.840,220.513 71.200,220.311 71.200 C 220.109 71.200,219.192 71.716,218.272 72.346 C 216.641 73.465,215.084 74.339,209.634 77.200 C 208.167 77.970,206.704 78.825,206.383 79.100 C 206.063 79.375,205.397 79.915,204.904 80.300 C 204.273 80.793,203.940 81.583,203.781 82.970 C 203.656 84.053,203.383 85.258,203.174 85.648 C 202.582 86.755,202.543 229.173,203.135 230.279 C 203.391 230.757,203.600 231.615,203.600 232.186 C 203.600 233.946,204.668 233.860,208.557 231.784 C 210.560 230.714,212.380 229.677,212.600 229.479 C 212.820 229.281,213.924 228.642,215.054 228.059 C 220.274 225.368,223.016 223.876,223.200 223.629 C 223.310 223.480,224.390 222.853,225.600 222.235 C 226.810 221.616,228.084 220.861,228.431 220.555 C 228.779 220.250,229.229 220.000,229.431 220.001 C 229.974 220.003,233.355 218.263,233.674 217.818 C 233.825 217.608,235.025 216.888,236.341 216.218 C 241.111 213.790,244.609 211.919,245.037 211.566 C 245.277 211.369,246.447 210.692,247.637 210.063 C 252.241 207.627,254.617 206.311,255.045 205.960 C 255.468 205.612,258.388 204.006,262.474 201.875 C 263.505 201.337,265.034 200.470,265.872 199.949 C 267.553 198.902,268.994 198.107,273.072 195.973 C 274.572 195.188,276.520 194.097,277.400 193.548 C 278.280 193.000,279.585 192.315,280.300 192.027 C 281.015 191.739,281.600 191.390,281.601 191.251 C 281.601 191.113,282.726 190.461,284.101 189.802 C 285.475 189.143,286.705 188.460,286.834 188.285 C 286.963 188.110,288.133 187.433,289.434 186.780 C 290.735 186.128,293.060 184.873,294.600 183.992 C 296.140 183.112,298.390 181.898,299.600 181.295 C 300.810 180.693,301.860 180.066,301.932 179.903 C 302.005 179.739,303.367 178.988,304.959 178.232 C 306.551 177.477,308.088 176.576,308.376 176.229 C 308.663 175.883,309.191 175.586,309.549 175.569 C 309.907 175.551,311.010 175.027,312.000 174.403 C 312.990 173.779,314.790 172.772,316.000 172.166 C 317.210 171.559,318.757 170.644,319.438 170.132 C 320.119 169.619,320.892 169.200,321.157 169.200 C 321.422 169.200,322.575 168.607,323.719 167.882 C 324.864 167.157,326.475 166.248,327.300 165.863 C 328.125 165.478,328.800 164.991,328.800 164.781 C 328.800 164.572,329.060 164.400,329.377 164.400 C 329.695 164.400,330.595 164.022,331.377 163.560 L 332.800 162.721 332.800 85.360 L 332.800 8.000 331.800 8.000 C 331.250 8.000,330.800 8.177,330.800 8.394 " stroke="none" fill="#fccc04" fill-rule="evenodd"></path><path id="path2" d="M67.200 243.818 L 67.200 321.237 69.259 322.191 C 70.392 322.716,71.427 323.292,71.559 323.473 C 71.692 323.653,72.880 324.326,74.200 324.970 C 75.520 325.613,76.690 326.262,76.800 326.411 C 76.910 326.559,78.260 327.293,79.800 328.041 C 81.340 328.788,82.708 329.547,82.840 329.727 C 83.076 330.048,86.597 331.986,89.831 333.575 C 90.728 334.016,91.898 334.702,92.431 335.100 C 92.964 335.497,94.525 336.358,95.899 337.011 C 97.274 337.665,98.399 338.302,98.399 338.426 C 98.400 338.551,99.525 339.181,100.900 339.826 C 102.275 340.472,103.490 341.114,103.600 341.253 C 103.784 341.486,106.318 342.893,111.400 345.583 C 112.500 346.166,114.161 347.128,115.092 347.721 C 116.023 348.314,117.024 348.800,117.317 348.800 C 117.610 348.800,118.217 349.143,118.667 349.562 C 119.117 349.981,120.546 350.809,121.842 351.402 C 123.139 351.995,124.293 352.629,124.407 352.813 C 124.521 352.996,125.765 353.691,127.173 354.356 C 128.580 355.022,129.837 355.711,129.966 355.888 C 130.201 356.212,133.100 357.817,137.213 359.901 C 138.430 360.517,139.960 361.390,140.613 361.841 C 141.266 362.291,142.700 363.072,143.800 363.576 C 144.900 364.080,145.890 364.620,146.000 364.776 C 146.110 364.932,147.280 365.587,148.600 366.230 C 149.920 366.874,151.099 367.532,151.220 367.694 C 151.551 368.137,155.328 369.996,155.900 369.998 C 156.175 369.999,156.400 370.178,156.400 370.396 C 156.400 370.614,157.615 371.378,159.100 372.094 C 160.585 372.811,162.149 373.713,162.575 374.099 C 163.002 374.484,163.583 374.800,163.868 374.800 C 164.152 374.800,165.340 375.411,166.508 376.158 C 167.675 376.905,169.524 377.930,170.615 378.436 C 171.707 378.942,172.692 379.486,172.804 379.646 C 172.916 379.806,173.996 380.429,175.204 381.031 C 176.412 381.633,177.490 382.247,177.600 382.395 C 177.710 382.543,178.880 383.181,180.200 383.813 C 181.520 384.445,182.690 385.083,182.800 385.230 C 182.910 385.377,184.170 386.083,185.600 386.800 C 187.030 387.517,188.290 388.223,188.400 388.369 C 188.510 388.514,189.770 389.210,191.200 389.913 C 192.630 390.617,194.126 391.419,194.523 391.696 C 195.375 392.289,196.400 391.260,196.400 389.813 C 196.400 389.354,196.666 388.598,196.991 388.134 C 197.602 387.262,197.860 245.986,197.253 245.000 C 196.673 244.058,196.012 241.707,196.006 240.570 C 195.999 239.064,195.072 238.166,191.600 236.299 C 186.544 233.581,184.198 232.253,184.000 231.998 C 183.890 231.856,182.729 231.213,181.420 230.570 C 180.110 229.926,178.715 229.085,178.320 228.700 C 177.924 228.315,177.355 228.000,177.056 228.000 C 176.757 228.000,175.812 227.521,174.956 226.937 C 174.100 226.352,172.320 225.337,171.000 224.682 C 169.680 224.026,168.510 223.358,168.400 223.197 C 168.290 223.037,167.210 222.408,166.000 221.800 C 164.790 221.192,163.710 220.570,163.600 220.418 C 163.490 220.265,162.322 219.613,161.004 218.970 C 159.686 218.326,158.259 217.487,157.833 217.105 C 157.407 216.722,156.686 216.295,156.229 216.155 C 155.773 216.016,154.410 215.297,153.200 214.557 C 150.673 213.013,148.292 211.698,145.308 210.199 C 144.157 209.621,143.107 208.973,142.974 208.758 C 142.841 208.543,141.533 207.805,140.066 207.117 C 138.600 206.429,137.310 205.740,137.200 205.585 C 137.090 205.430,135.863 204.695,134.474 203.952 C 130.308 201.722,129.115 201.051,126.548 199.490 C 125.199 198.671,123.918 198.000,123.702 198.000 C 123.485 198.000,122.879 197.664,122.354 197.253 C 121.829 196.843,120.410 195.997,119.200 195.374 C 117.990 194.751,116.910 194.120,116.800 193.971 C 116.690 193.823,115.340 193.041,113.800 192.233 C 110.802 190.660,109.991 190.203,106.195 187.951 C 104.852 187.155,103.360 186.378,102.879 186.225 C 102.398 186.072,101.765 185.708,101.472 185.415 C 101.179 185.121,99.782 184.300,98.369 183.589 C 96.956 182.878,95.710 182.163,95.600 182.000 C 95.490 181.837,94.320 181.128,93.000 180.425 C 88.559 178.061,86.610 176.955,84.622 175.674 C 83.534 174.974,82.433 174.400,82.176 174.400 C 81.918 174.400,81.279 174.064,80.754 173.653 C 80.229 173.243,78.810 172.397,77.600 171.774 C 76.390 171.151,75.310 170.520,75.200 170.372 C 75.090 170.224,73.909 169.555,72.576 168.884 C 71.243 168.214,69.916 167.381,69.627 167.033 C 69.338 166.685,68.674 166.400,68.151 166.400 L 67.200 166.400 67.200 243.818 " stroke="none" fill="#2c2c2c" fill-rule="evenodd"></path><path id="path3" d="M202.501 88.200 C 202.505 89.080,202.587 89.393,202.683 88.895 C 202.779 88.398,202.775 87.678,202.675 87.295 C 202.575 86.913,202.496 87.320,202.501 88.200 M202.537 99.400 C 202.539 101.160,202.609 101.830,202.693 100.889 C 202.778 99.949,202.777 98.509,202.691 97.689 C 202.605 96.870,202.536 97.640,202.537 99.400 M202.524 105.000 C 202.526 106.320,202.601 106.812,202.690 106.093 C 202.779 105.374,202.777 104.294,202.686 103.693 C 202.595 103.092,202.522 103.680,202.524 105.000 M202.520 132.400 C 202.520 133.610,202.595 134.105,202.687 133.500 C 202.778 132.895,202.778 131.905,202.687 131.300 C 202.595 130.695,202.520 131.190,202.520 132.400 M202.493 136.000 C 202.493 136.770,202.575 137.085,202.676 136.700 C 202.776 136.315,202.776 135.685,202.676 135.300 C 202.575 134.915,202.493 135.230,202.493 136.000 M202.557 143.200 C 202.557 146.170,202.620 147.385,202.697 145.900 C 202.774 144.415,202.774 141.985,202.697 140.500 C 202.620 139.015,202.557 140.230,202.557 143.200 M202.553 153.800 C 202.553 156.440,202.618 157.468,202.697 156.084 C 202.775 154.701,202.774 152.541,202.695 151.284 C 202.616 150.028,202.552 151.160,202.553 153.800 M202.501 165.400 C 202.505 166.280,202.587 166.593,202.683 166.095 C 202.779 165.598,202.775 164.878,202.675 164.495 C 202.575 164.113,202.496 164.520,202.501 165.400 M202.524 169.800 C 202.526 171.120,202.601 171.612,202.690 170.893 C 202.779 170.174,202.777 169.094,202.686 168.493 C 202.595 167.892,202.522 168.480,202.524 169.800 M202.524 175.400 C 202.526 176.720,202.601 177.212,202.690 176.493 C 202.779 175.774,202.777 174.694,202.686 174.093 C 202.595 173.492,202.522 174.080,202.524 175.400 M202.501 195.000 C 202.505 195.880,202.587 196.193,202.683 195.695 C 202.779 195.198,202.775 194.478,202.675 194.095 C 202.575 193.713,202.496 194.120,202.501 195.000 M202.537 200.200 C 202.539 201.960,202.609 202.630,202.693 201.689 C 202.778 200.749,202.777 199.309,202.691 198.489 C 202.605 197.670,202.536 198.440,202.537 200.200 M202.501 205.800 C 202.505 206.680,202.587 206.993,202.683 206.495 C 202.779 205.998,202.775 205.278,202.675 204.895 C 202.575 204.513,202.496 204.920,202.501 205.800 M202.534 216.800 C 202.534 218.450,202.605 219.125,202.691 218.300 C 202.778 217.475,202.778 216.125,202.691 215.300 C 202.605 214.475,202.534 215.150,202.534 216.800 M202.534 224.800 C 202.534 226.450,202.605 227.125,202.691 226.300 C 202.778 225.475,202.778 224.125,202.691 223.300 C 202.605 222.475,202.534 223.150,202.534 224.800 " stroke="none" fill="#d06450" fill-rule="evenodd"></path><path id="path4" d="" stroke="none" fill="#448050" fill-rule="evenodd"></path></g></svg>